<?xml version="1.0" standalone="no"?>
<!DOCTYPE svg PUBLIC "-//W3C//DTD SVG 1.1//EN" "http://www.w3.org/Graphics/SVG/1.1/DTD/svg11.dtd" >
<svg xmlns="http://www.w3.org/2000/svg" xmlns:xlink="http://www.w3.org/1999/xlink" version="1.1">
<metadata></metadata>
<defs>
<font id="pokemon_normal" horiz-adv-x="935" >
<font-face units-per-em="2048" ascent="1638" descent="-410" />
<missing-glyph horiz-adv-x="850" />
<glyph horiz-adv-x="0" />
<glyph unicode="&#xd;" horiz-adv-x="850" />
<glyph unicode=" "  horiz-adv-x="850" />
<glyph unicode="&#x09;" horiz-adv-x="850" />
<glyph unicode="&#xa0;" horiz-adv-x="850" />
<glyph unicode="!" horiz-adv-x="340" d="M-96 1247l497 125l-102 -867l-286 -23zM-7 122q0 69 37 114q39 49 106 54q106 0 172 -57q47 -40 47 -81q0 -66 -60 -129q-25 -26 -46 -29q-44 -5 -66 -5q-170 0 -190 133z" />
<glyph unicode="&#x22;" horiz-adv-x="850" d="M-68 1238l345 -41l-34 -422l-177 21zM442 1238l345 -41l-34 -422l-177 21z" />
<glyph unicode="#" d="M-28 595l21 199l197 6l8 85l-177 11l20 209h217l7 188l225 -5l-34 -183h156l62 188h183l-27 -193h136l-54 -215l-96 11l-20 -102l95 6l-34 -210h-94l-34 -102l-212 -11l7 118h-177l-27 -130l-198 -28l27 164zM408 800h157l21 90h-157z" />
<glyph unicode="$" d="M-164 85q22 38 88 195q50 117 55 117q47 -32 177 -79t184 -51q3 -1 179 -36q24 -5 56 -5q38 0 58 12q37 23 37 49q0 57 -173 132q-290 127 -465 323q-97 110 -97 220q0 275 453 274l20 148l287 -23l-13 -161q136 -27 407 -100q-11 -21 -78 -170q-61 -137 -65 -141 q-32 27 -227 96q-83 29 -133 33q-36 3 -118 24q-74 18 -117 17q-37 0 -59 -12q-34 -21 -34 -47q0 -48 103 -113q88 -56 211 -106q217 -90 320 -221q88 -112 88 -232q0 -65 -27 -114q-93 -171 -403 -171q-4 -6 -4 -31q0 -57 12 -139l-313 34l18 170q-112 22 -272 65 q-48 13 -155 43z" />
<glyph unicode="%" horiz-adv-x="1191" d="M-149 -238l1013 1435l456 17l-1041 -1441zM-76 913q0 101 51 170q69 93 207 93q110 0 194 -57q69 -46 98 -95q16 -27 16 -66q0 -107 -93 -199q-40 -40 -74 -46q-50 -8 -100 -8q-174 0 -253 97q-37 46 -46 111zM740 114q0 101 52 170q69 92 207 92q110 0 194 -56 q69 -46 98 -96q16 -27 16 -65q0 -107 -95 -201q-41 -40 -72 -45q-55 -8 -101 -8q-174 0 -252 98q-37 46 -47 111z" />
<glyph unicode="&#x26;" horiz-adv-x="1021" d="M-125 359q0 101 91 220q74 98 161 141q53 27 77 28q-167 168 -167 260q0 24 10 41q92 168 389 169l6 126h340l-40 -160q109 -21 302 -73l127 -34q-11 -21 -78 -170q-61 -136 -66 -141q-24 28 -81 73q-57 28 -251 59q-185 29 -281 29q-55 0 -55 -20q0 -38 68 -97 q132 -115 250 -115q10 0 31 3l6 -204q-172 16 -333 73q-31 -5 -79 -50q-50 -46 -50 -75q0 -93 120 -148q78 -37 234 -37q168 0 401 49l54 -215l-436 -63l-26 -130h-279l20 119q-343 30 -442 244q-22 48 -23 98z" />
<glyph unicode="'" horiz-adv-x="340" d="M17 1238l345 -41l-34 -422l-177 21z" />
<glyph unicode="(" horiz-adv-x="680" d="M7 522q0 27 3 57q32 285 335 509q242 180 410 216l-47 -283q-145 -87 -266 -232q-81 -98 -105 -215q-8 -37 -7 -62q0 -222 316 -432l-40 -329q-323 193 -469 401q-130 186 -130 370z" />
<glyph unicode=")" horiz-adv-x="680" d="M-75 1304q160 -32 411 -217q304 -225 334 -508q3 -31 4 -57q0 -415 -599 -771l-41 329q317 207 317 432q0 28 -7 62q-39 201 -263 370q-76 57 -109 77z" />
<glyph unicode="*" horiz-adv-x="680" d="M-115 1100l162 159l151 -119l-8 182l259 -6v-204l163 119l143 -142l-245 -147l191 -244l-225 -51l-184 204l-177 -210l-177 130l198 187z" />
<glyph unicode="+" horiz-adv-x="766" d="M-7 550l20 187l279 22l21 217h265l-26 -199l258 23l-28 -228l-278 -7l-34 -230h-259l34 223z" />
<glyph unicode="," horiz-adv-x="680" d="M-63 -145l493 322l159 -47l-336 -367z" />
<glyph unicode="-" horiz-adv-x="766" d="M-7 550l20 187l797 63l-28 -228z" />
<glyph unicode="." horiz-adv-x="340" d="M-7 122q0 69 37 114q39 49 106 54q106 0 172 -57q47 -40 47 -81q0 -66 -60 -129q-25 -26 -46 -29q-44 -5 -66 -5q-170 0 -190 133z" />
<glyph unicode="/" horiz-adv-x="1191" d="M-149 -238l1013 1435l456 17l-1041 -1441z" />
<glyph unicode="0" d="M-55 572q-2 92 23 203q53 229 260 330q116 55 282 57q274 2 402 -185q103 -151 102 -383v-33q0 -98 -79 -239q-74 -133 -188 -217q-136 -99 -291 -99q-316 0 -439 244q-66 132 -72 322zM292 556q0 -104 87 -160q43 -28 104 -28q130 13 172 92q25 48 25 107q2 99 -51 160 q-55 65 -153 67q-66 2 -109 -37q-74 -67 -75 -201z" />
<glyph unicode="1" horiz-adv-x="425" d="M-109 987l41 170l517 142l14 -1299l-375 -17l21 1021z" />
<glyph unicode="2" d="M-68 1100q207 56 375 95q199 47 363 47q290 0 385 -170q18 -33 18 -76q0 -147 -148 -317q-157 -180 -360 -226q-119 -27 -210 -142q-72 -92 -110 -215l816 119l-81 -215l-1042 -148q0 402 111 587q77 129 213 175q152 5 318 131q160 123 160 187q0 13 -11 15q-22 4 -47 4 q-48 0 -124 -13q-97 -17 -122 -20q-91 -9 -285 -94q-69 -30 -76 -35q-7 0 -54 112q-43 106 -89 199z" />
<glyph unicode="3" horiz-adv-x="1021" d="M-149 1077q207 57 375 96q199 46 363 46q288 0 384 -170q11 -19 11 -41q0 -92 -168 -260q27 -3 79 -29q86 -43 160 -140q89 -118 90 -220q0 -52 -22 -98q-88 -183 -341 -230q-104 -20 -206 -20q-63 0 -106 6l-511 74l54 215q238 -49 402 -49q272 0 333 115q21 42 21 70 q0 30 -50 76q-48 44 -79 49q-164 -58 -334 -73l7 204q20 -3 29 -3q141 0 268 132q52 54 52 80q0 20 -55 20q-98 0 -280 -29q-196 -31 -252 -59q-24 -11 -49 -39l-33 -34q-6 0 -52 112q-39 94 -90 199z" />
<glyph unicode="4" d="M-88 510l47 556l354 28l-48 -402l239 -40l48 482l414 46l-163 -1367q-44 -16 -138 -16q-112 0 -229 16l47 624z" />
<glyph unicode="5" horiz-adv-x="1021" d="M-211 1146q41 -1 117 -1q438 0 798 66q212 40 310 77l27 -245q-171 -58 -397 -99q-152 -28 -297 -28q-68 0 -130 8l48 -210q246 51 415 52q89 0 136 -18q29 -3 79 -29q86 -43 160 -140q89 -118 90 -220q0 -52 -22 -98q-88 -183 -341 -230q-104 -20 -206 -20q-63 0 -106 6 l-511 74l54 215q238 -49 402 -49q272 0 333 115q21 42 21 70q0 30 -50 76q-48 44 -79 49q-106 -37 -565 -79q-150 413 -286 658z" />
<glyph unicode="6" horiz-adv-x="1021" d="M-47 285q0 133 81 347q36 95 75 157q175 276 488 432q195 96 471 140l-211 -278q-157 -97 -290 -215q-86 -78 -104 -136q81 38 187 38q62 0 92 -22q27 -3 79 -29q87 -44 159 -140q90 -119 90 -220q0 -52 -22 -98q-81 -172 -268 -239q-110 -39 -234 -44q-48 -2 -87 -2 q-260 0 -402 122q-67 58 -98 134q-6 17 -6 53zM255 368q0 -79 63 -125q57 -42 139 -42q26 0 40 2q159 16 206 106q20 38 20 78q0 27 -9 50q-22 61 -83 96q-57 32 -124 32q-54 0 -122 -42q-106 -66 -127 -126q-3 -10 -3 -29z" />
<glyph unicode="7" horiz-adv-x="1191" d="M-130 987v272l1444 -97l-634 -1372l-401 -28l517 1162z" />
<glyph unicode="8" horiz-adv-x="1021" d="M-58 335q0 177 133 278q78 59 204 107q-266 86 -266 232q0 48 28 97q100 179 395 179q34 0 88 -3q129 -8 194 -20q198 -36 282 -190q8 -15 8 -31q0 -50 -96 -143l-96 -93q27 -3 79 -29q86 -43 160 -140q89 -118 90 -220q0 -51 -22 -98q-81 -172 -296 -239 q-139 -42 -310 -45l-58 -1q-260 0 -402 122q-115 99 -115 237zM272 352q0 -95 245 -95q193 0 236 112q16 42 16 73q0 30 -50 76q-48 44 -79 49q-98 -33 -177 -49q-39 -8 -96 -39q-68 -36 -68 -65q-6 0 -16.5 -26.5t-10.5 -35.5zM337 933q0 -18 66 -44l94 -38l98 40 q77 32 77 49q0 9 -11 18q-55 40 -166 40q-106 0 -148 -46q-10 -11 -10 -19z" />
<glyph unicode="9" horiz-adv-x="1021" d="M-8 855q0 52 21 97q103 217 357 266q92 17 174 18q8 0 29 1q18 1 29 1q258 0 403 -124q69 -59 97 -133q6 -17 7 -53q0 -100 -51 -259q-48 -153 -105 -244l-122 -194q-180 -290 -353 -467q-103 -106 -206 -161l-272 12q117 153 288 393l159 224q113 168 131 228 q-46 -23 -134 -23q-84 0 -124 28q-121 17 -239 171q-89 117 -89 219zM396 823q0 -28 12 -57q29 -66 109 -67q44 0 123 32q88 36 89 69l3 8q8 30 8 53q0 97 -141 97q-16 0 -47 -3q-155 -14 -156 -132z" />
<glyph unicode=":" d="M164 536q0 69 36 114q39 48 106 53q106 0 172 -56q47 -40 48 -82q0 -66 -61 -128q-25 -25 -46 -29q-44 -6 -65 -5q-170 0 -190 133zM333 111q0 68 37 113q39 48 106 53q106 0 172 -54q48 -40 48 -82q0 -69 -60 -129q-26 -26 -47 -29q-40 -6 -65 -6q-171 0 -191 134z" />
<glyph unicode=";" horiz-adv-x="766" d="M-63 -145l493 322l159 -47l-336 -367zM164 536q0 69 36 114q39 48 106 53q106 0 172 -56q47 -40 48 -82q0 -66 -61 -128q-25 -25 -46 -29q-44 -6 -65 -5q-170 0 -190 133z" />
<glyph unicode="&#x3c;" horiz-adv-x="850" d="M7 743l1000 329l-34 -238l-429 -108l395 -113l-41 -245z" />
<glyph unicode="=" horiz-adv-x="766" d="M-13 368l20 188l796 62l-27 -227zM-7 669l20 187l797 62l-28 -226z" />
<glyph unicode="&#x3e;" horiz-adv-x="850" d="M-72 1072l1001 -329l-892 -375l-40 245l394 113l-428 108z" />
<glyph unicode="?" d="M-68 1100q207 56 375 95q199 47 363 47q290 0 385 -170q8 -15 8 -37q0 -98 -171 -265q-123 -120 -268 -220q-174 -119 -275 -144l-87 208q152 5 318 131q160 123 160 187q0 13 -11 15q-22 4 -47 4q-48 0 -124 -13q-97 -17 -122 -20q-91 -9 -285 -94q-69 -30 -76 -35 q-7 0 -54 112q-43 106 -89 199zM333 111q0 68 37 113q39 48 106 53q106 0 172 -54q48 -40 48 -82q0 -69 -60 -129q-26 -26 -47 -29q-40 -6 -65 -6q-171 0 -191 134z" />
<glyph unicode="@" horiz-adv-x="1105" d="M-70 622q0 364 302 490q117 49 278 50q291 2 501 -141q97 -66 135 -148q28 -57 28 -156q0 -207 -128 -313q-73 -61 -182 -64q-199 -5 -435 137l198 226q61 -27 106 -27q33 0 36 22q0 49 -108 84q-47 15 -89 18q-62 0 -149 -136q-56 -87 -56 -152q0 -142 208 -197 q84 -22 160 -25l-55 -290q-267 0 -478 125q-246 147 -270 436q-2 20 -2 61z" />
<glyph unicode="A" d="M-374 -227l905 1503l817 -1639l-348 -28l-388 754l-217 28l-340 -601zM408 556l198 -23l-82 267z" />
<glyph unicode="B" horiz-adv-x="1021" d="M-68 1100q207 56 375 95q199 47 363 47q294 0 385 -170q10 -19 10 -41q0 -92 -167 -260q120 -14 238 -170q85 -112 85 -211q0 -111 -107 -203q-91 -77 -231 -122q-93 -31 -169 -48l-285 -63l-273 908q-9 0 -54 -47q-21 -21 -27 -26q-7 0 -54 112q-43 106 -89 199z M456 970l68 -307q122 87 212 183q59 63 60 104q0 33 -48 43q-34 7 -72 7q-63 0 -220 -30zM606 522l40 -221q205 71 205 164q0 30 -50 76q-48 44 -80 49q-61 -50 -115 -68z" />
<glyph unicode="C" horiz-adv-x="1021" d="M-70 622q0 364 302 490q117 49 278 50h6q180 0 359 -64q228 -82 271 -225l-372 -202q-37 77 -250 77q-58 0 -106 -66q-44 -61 -44 -118q0 -71 48 -117q44 -43 116 -44h9q168 0 256 149q8 -13 203 -145l101 -68q-117 -233 -384 -295q-114 -27 -226 -27q-332 0 -472 219 q-76 120 -93 325q-2 21 -2 61z" />
<glyph unicode="D" horiz-adv-x="1105" d="M-34 1123q425 116 673 116h4q313 0 412 -167q115 -196 116 -410q0 -249 -150 -430q-72 -87 -175 -142q-87 -47 -227 -67l-347 -51l-116 890q-5 0 -41 -36.5t-40 -36.5q-23 13 -72 209q-26 104 -37 125zM510 936l42 -630q212 76 244 182q26 47 26 210q0 222 -93 249 q-70 20 -110 20q-57 0 -109 -31z" />
<glyph unicode="E" d="M-96 834l21 328l1007 126l21 -301l-572 -80l14 -215l564 79l21 -249l-572 -90l28 -341l871 -34l-7 -300l-1212 50l-67 1044z" />
<glyph unicode="F" d="M-96 834l21 328l1007 126l21 -301l-572 -80l14 -215l428 56l21 -249l-436 -67l48 -625q-132 -15 -230 -15q-94 0 -138 15l-67 1044z" />
<glyph unicode="G" horiz-adv-x="1021" d="M-70 622q0 364 302 490q117 49 278 50h6q180 0 359 -64q228 -82 271 -225l-372 -202q-37 77 -250 77q-58 0 -106 -66q-44 -61 -44 -118q0 -72 48 -116q44 -42 116 -45q7 0 59 10l30 6l-62 23l96 182l469 -147l-109 -767l-422 29q35 87 63 163l52 137q-54 -22 -217 -22 q-332 0 -472 219q-76 120 -93 325q-2 21 -2 61z" />
<glyph unicode="H" d="M-149 1333l571 -40l20 -482h116l-34 454l442 -29l89 -1542l-341 5l-136 811l-129 29l-7 -732l-395 -5l-47 1326l-143 29z" />
<glyph unicode="I" d="M-96 834l21 328l1007 126l21 -301l-347 -57l-62 -612l422 -6l-7 -301h-1000l41 266l232 7l33 601z" />
<glyph unicode="J" horiz-adv-x="1105" d="M-13 421q0 63 20 197l422 85l-6 -115q0 -75 23 -118q13 -27 37 -51q66 -65 114 -65q54 0 98 94q35 75 35 264v11q0 134 -20 390q-12 148 -15 231l441 -28q37 -201 38 -493q0 -331 -65 -494q-39 -97 -189 -214q-67 -52 -110 -73q-96 -46 -242 -46q-239 0 -398 112 q-183 130 -183 313z" />
<glyph unicode="K" d="M-109 987l41 170l422 147v-227l224 199l286 -199l-408 -493l851 -545l20 -277l-864 391l20 -340l-395 -6l-75 1203z" />
<glyph unicode="L" d="M-109 987l41 170l422 147l82 -1213l871 -34l-7 -300l-1212 50l-75 1203z" />
<glyph unicode="M" horiz-adv-x="1191" d="M7 17l115 1015l409 23l109 -148l95 205l265 5l314 -1213l-484 39l-88 414l-96 -153l-129 193l-41 -351z" />
<glyph unicode="N" d="M-149 1333l503 -29l218 -459l-48 420l517 -18l14 -1553l-307 -17l-312 737l6 -607l-395 -5l-47 1326l-143 29z" />
<glyph unicode="O" horiz-adv-x="1276" d="M-57 465q0 217 166 374q210 200 426 278q113 41 229 41h5h3q196 0 385 -120q197 -125 197 -335q0 -147 -93 -295q-44 -70 -97 -124q-315 -325 -669 -325q-181 0 -325 80q-108 61 -171 190q-56 115 -56 236zM670 607q69 -46 137 -46q93 0 149 72q49 63 49 145q0 43 -12 81 q-13 -62 -54 -114q-51 -64 -117 -64q-89 0 -90 97q0 97 127 155q-158 0 -219 -109q-26 -46 -26 -95q0 -84 56 -122z" />
<glyph unicode="P" d="M-68 1100q206 56 375 95q187 44 329 44q122 0 158 -6q120 -18 196 -83q41 -35 65 -78q10 -18 10 -40q0 -137 -306 -389q-106 -87 -153 -121l149 -437l-217 -131l-382 908q-5 -3 -16 -13l-37 -35q-22 -21 -28 -25q-7 0 -54 112q-43 105 -89 199zM470 907l68 -204 q204 173 204 229q0 13 -13 15q-40 7 -74 7q-109 0 -185 -47z" />
<glyph unicode="Q" horiz-adv-x="850" d="M-19 366q0 207 94 371q107 187 309 250q90 28 179 28q141 0 219 -57q209 -152 210 -402q0 -174 -116 -329q87 -45 179 -125q59 -52 88 -108l-237 -147q-63 89 -149 152q-59 43 -117 43q-117 -50 -237 -50q-169 0 -307 99q-115 82 -115 275zM299 414q1 -46 12 -64 q27 -46 118 -47q127 0 193 156q29 69 29 135q0 103 -65 138q-10 6 -23 5q-53 0 -127 -75q-55 -55 -90 -115q-47 -78 -47 -133z" />
<glyph unicode="R" horiz-adv-x="1021" d="M-68 1100q207 56 375 95q199 47 363 47q290 0 385 -170q8 -15 8 -36q0 -59 -89 -160q-40 -46 -89 -94q45 -4 87 -55q48 -58 62 -120l143 -613l-252 -45l-183 561q-13 39 -57 83q-24 24 -52 24q-5 0 -17 -3q-70 -59 -112 -87l108 -504l-285 -62l-171 901q-8 0 -56 -48 l-25 -25q-7 0 -54 112q-43 106 -89 199zM415 930l48 -204q51 9 119 74q71 66 71 115q0 22 -20 27q-81 17 -111 17h-3q-54 0 -104 -29z" />
<glyph unicode="S" d="M-164 85q22 38 88 195q50 117 55 117q47 -32 177 -79t184 -51q3 -1 179 -36q24 -5 56 -5q38 0 58 12q37 23 37 49q0 57 -173 132q-290 127 -465 323q-97 110 -97 220q0 55 31 110q93 164 388 164q165 0 373 -44q99 -21 362 -92q-11 -21 -78 -170q-61 -137 -65 -141 q-32 27 -227 96q-83 29 -133 33q-36 3 -118 24q-70 17 -112 17h-5q-37 0 -59 -12q-34 -21 -34 -47q0 -48 103 -113q88 -56 211 -106q217 -90 320 -221q88 -112 88 -232q0 -65 -27 -114q-94 -170 -383 -171q-208 0 -557 94z" />
<glyph unicode="T" d="M-164 896l8 273l1327 73l20 -300l-422 -29l47 -930h-50q-154 0 -265 11q-63 7 -93 17l-54 891z" />
<glyph unicode="U" horiz-adv-x="1105" d="M-149 1333l571 -40q-5 -65 -5 -148q0 -279 42 -558q18 -120 38 -155q42 -80 92 -80q61 0 106 96q35 75 35 243v9q0 104 -14 281l-13 166q-6 72 -8 118l441 -29q37 -202 38 -454q0 -291 -65 -453q-38 -97 -189 -214q-67 -52 -110 -73q-96 -46 -242 -46q-241 0 -398 112 q-99 70 -147 295q-42 197 -42 439q0 166 19 286l-143 29z" />
<glyph unicode="V" horiz-adv-x="1191" d="M-130 1259l504 -28l313 -823l225 772l483 -23l-504 -1282l-374 6l-496 1174l-143 28z" />
<glyph unicode="W" horiz-adv-x="1191" d="M-122 1060l483 -39l88 -414l95 153l130 -193l68 641l469 28l-143 -1304l-407 -23l-109 148l-96 -205l-266 -5z" />
<glyph unicode="X" horiz-adv-x="1191" d="M-149 -238l591 799l-497 692l463 -56l232 -329l224 329l456 17l-483 -677l429 -713l-470 91l-197 317l-320 -459z" />
<glyph unicode="Y" horiz-adv-x="1191" d="M-130 1259l504 -28l340 -528l198 477l402 -18l-634 -1372l-401 -28l245 584l-477 726l-169 11z" />
<glyph unicode="Z" horiz-adv-x="1191" d="M-136 1322l1436 62l-667 -1197l660 40l-20 -261l-1307 -62l620 1145l-674 -45z" />
<glyph unicode="[" horiz-adv-x="680" d="M-55 -301l55 1537l769 74l-27 -300l-320 -40l-75 -936l299 46l-19 -290z" />
<glyph unicode="\" horiz-adv-x="1191" d="M-55 1253l463 -56l858 -1373l-470 91z" />
<glyph unicode="]" horiz-adv-x="766" d="M-34 936l47 272l756 85l-68 -1384l-694 -62l34 312l320 28l47 783z" />
<glyph unicode="^" d="M-34 1004l34 193l436 119l476 -136l20 -193l-496 136z" />
<glyph unicode="_" horiz-adv-x="1021" d="M-81 -68l74 130l1096 -28l-41 -125q-82 0 -240 4z" />
<glyph unicode="`" d="M109 1004l190 243l443 -204l-96 -125z" />
<glyph unicode="a" horiz-adv-x="850" d="M-32 360q0 167 115 269q201 177 422 178q31 0 47 -2l6 -5l348 130l6 -387q7 -36 7 -82q0 -40 -3 -59l9 -425l-373 -16v42q-91 -31 -185 -31q-145 0 -242 66q-157 107 -157 322zM318 488q0 -63 71 -103q63 -35 128 -35q13 0 35 3v148q-65 0 -65 73q0 68 65 104 q-94 -10 -167 -70q-67 -57 -67 -120z" />
<glyph unicode="b" horiz-adv-x="893" d="M-109 987l41 170l422 147l7 -488q94 32 181 32q122 0 252 -58q167 -75 167 -288q0 -98 -36 -181q-16 -38 -39 -65q-136 -167 -314 -221q-81 -24 -164 -24q-16 2 -34 2v-24l-374 -17l13 1038zM366 565l1 -73q14 -41 63 -67q67 -35 127 -35q119 0 174 117q24 52 24 103 q0 33 -10 64q-14 -47 -54 -88q-47 -46 -99 -46q-65 0 -65 69q0 77 106 111q-129 0 -215 -79q-38 -36 -52 -76z" />
<glyph unicode="c" horiz-adv-x="850" d="M-72 332q0 219 184 396q107 103 239 137q59 15 119 15h8h2q276 0 402 -229q24 -43 30 -61l-308 -57q-13 57 -121 57q-211 -16 -211 -205v-5q3 -152 116 -170q101 0 167 78q31 36 51 80l308 -52q-32 -88 -125 -179q-80 -77 -177 -109q-117 -38 -232 -38q-186 0 -328 101 q-124 88 -124 241z" />
<glyph unicode="d" horiz-adv-x="850" d="M-32 360q0 167 115 269q201 177 422 178q31 0 47 -2l-8 545l347 130l21 -937q7 -36 7 -82q0 -40 -3 -59l9 -425l-373 -16v42q-91 -31 -185 -31q-145 0 -242 66q-157 107 -157 322zM318 488q0 -63 71 -103q63 -35 128 -35q13 0 35 3v148q-65 0 -65 73q0 68 65 104 q-94 -10 -167 -70q-67 -57 -67 -120z" />
<glyph unicode="e" horiz-adv-x="850" d="M-19 284q0 85 36 183q42 112 105 162q181 143 436 143q221 0 367 -109l-455 -453q121 0 215 81q45 38 81 92l200 -202q-50 -121 -329 -183q-123 -28 -248 -28q-235 0 -327 98q-81 84 -81 216zM255 388q0 -36 26 -107l255 263q-41 17 -83 17q-100 0 -147 -51 q-51 -57 -51 -122z" />
<glyph unicode="f" d="M-158 828l257 -23q-5 52 -5 75q0 280 372 373q120 30 240 30q212 0 310 -95q35 -34 56 -105l-293 -159q-52 112 -133 112q-54 0 -91 -71q-9 -18 -19 -104l-9 -72h220v-267l-240 -6q-2 -52 -2 -167q0 -172 8 -364q4 -93 8 -127l-409 -39q-9 75 -19 311q-6 147 -8 380h-196 z" />
<glyph unicode="g" horiz-adv-x="850" d="M-32 360q0 167 115 269q200 177 422 178q71 0 131 -15l255 104l21 -962q1 -26 1 -50q0 -283 -76 -361q-159 -163 -395 -163q-212 0 -336 98q-100 79 -101 205q0 121 70 229l272 -148q-3 -17 -3 -23q0 -44 40 -70q35 -21 82 -21q102 0 120 80q9 43 9 107v13q0 89 -15 184 q-104 -42 -213 -42q-145 0 -242 66q-157 107 -157 322zM325 488q0 -64 71 -103q43 -22 117 -22q50 0 96 10l-3 149q-90 0 -90 52q0 46 34 102q-129 -18 -195 -108q-30 -40 -30 -80z" />
<glyph unicode="h" horiz-adv-x="1021" d="M-21 1310l341 34l54 -544q149 41 257 41q99 0 172 -36q108 -52 196 -160q42 -52 56 -101q44 -148 44 -257q0 -90 -38 -287l-347 -17q2 35 2 99q0 273 -89 462q-34 72 -69 72q-44 0 -95 -100q-26 -49 -34 -136q-2 -31 -2 -81q0 -106 15 -271l-408 -39q-8 50 -12 205 q-2 119 -20 213z" />
<glyph unicode="i" horiz-adv-x="425" d="M-68 572l40 171l423 147l54 -1020l-374 -18l-20 743zM34 1143q0 69 37 113q39 49 106 54q106 0 172 -56q47 -40 47 -81q0 -69 -60 -129q-34 -34 -108 -34h-4q-111 0 -160 62q-24 31 -30 71z" />
<glyph unicode="j" horiz-adv-x="850" d="M5 -337q0 121 70 229l272 -148q-3 -17 -3 -23q0 -44 40 -70q35 -21 82 -21q102 0 120 80q9 43 9 107v13q0 31 -6 90q-8 68 -9 94l-36 581l-122 -23l41 171l422 147l27 -956q1 -29 1 -56q0 -276 -76 -355q-159 -163 -395 -163q-212 0 -336 98q-100 79 -101 205zM490 1149 q0 68 37 113q39 49 106 54q77 0 144 -36q75 -40 75 -100q0 -39 -31 -93q-27 -45 -58 -60q-27 -12 -83 -12q-111 0 -160 62q-24 31 -30 72z" />
<glyph unicode="k" d="M-109 987l41 170l422 147l61 -799l348 158l360 -45l-470 -300l443 -279l20 -277l-653 391l20 -340l-395 -6l-75 1203z" />
<glyph unicode="l" horiz-adv-x="425" d="M-109 987l41 170l422 147l109 -1480l-375 -17l-75 1203z" />
<glyph unicode="m" horiz-adv-x="1446" d="M-13 811l326 34l48 -45q131 35 214 35q92 0 177 -41q215 57 320 57q83 0 142 -28q78 -37 158 -117q86 -87 108 -162q44 -149 44 -257q0 -90 -37 -287l-347 -17q1 35 1 99q0 272 -89 462q-35 73 -79 73q-18 0 -18 -22q0 -13 3 -21q6 -10 11 -30q45 -151 45 -257 q0 -73 -37 -287l-348 -17q2 35 2 99q0 273 -90 462q-12 35 -25 72q-10 -18 -53 -100q-26 -50 -34 -140q-2 -30 -2 -77q0 -106 15 -271l-408 -39q-24 144 -32 233q-4 48 -4 111q0 26 4 74z" />
<glyph unicode="n" horiz-adv-x="1021" d="M-13 811l326 34l48 -45q189 52 285 52q81 0 143 -29q81 -39 161 -121q84 -85 105 -158q44 -149 44 -257q0 -90 -38 -287l-347 -17q2 35 2 99q0 273 -89 462q-34 72 -69 72q-44 0 -95 -100q-26 -49 -34 -136q-2 -31 -2 -81q0 -106 15 -271l-408 -39q-24 144 -32 233 q-4 48 -4 111q0 26 4 74z" />
<glyph unicode="o" horiz-adv-x="850" d="M-32 360q0 167 115 269q200 177 421 178q63 0 124 -14q155 -35 221 -115q71 -87 71 -215q0 -98 -35 -182q-16 -37 -39 -66q-198 -243 -479 -243q-145 0 -242 66q-157 107 -157 322zM318 488q0 -58 66 -100q60 -38 132 -38q120 0 175 117q23 49 23 99q0 38 -10 67 q-13 -46 -54 -86q-47 -46 -98 -46q-65 0 -65 67q0 78 105 113q-91 0 -175 -50q-99 -58 -99 -143z" />
<glyph unicode="p" horiz-adv-x="850" d="M-170 579l40 169l422 148l11 -128q99 39 201 40q122 0 249 -58q167 -76 167 -287q0 -98 -35 -182q-16 -37 -39 -66q-135 -167 -318 -218q-82 -24 -167 -24l40 -557l-373 -17l-57 906q-1 4 -3 51l-15 245zM321 513q0 -78 60 -122q54 -40 135 -41q120 0 175 117 q23 49 23 99q0 39 -10 67q-13 -46 -54 -86q-47 -46 -98 -46q-65 0 -65 67q0 78 105 113q-135 0 -222 -88q-39 -38 -49 -80z" />
<glyph unicode="q" horiz-adv-x="850" d="M-32 360q0 167 115 269q200 177 422 178q71 0 131 -15l249 87l47 -1492l-313 -5l-39 632q-104 -42 -213 -42q-145 0 -242 66q-157 107 -157 322zM325 488q0 -64 71 -103q43 -22 117 -22q50 0 96 10l-3 149q-90 0 -90 52q0 46 34 102q-129 -18 -195 -108q-30 -40 -30 -80z " />
<glyph unicode="r" d="M-13 851l326 34l48 -46q189 54 283 54q80 0 145 -31q160 -77 191 -187l-293 -159q-52 112 -132 112q-128 0 -128 -314q0 -121 15 -286l-408 -39q-36 214 -36 381q0 28 4 77z" />
<glyph unicode="s" d="M-130 85q21 35 119 194q32 51 32 56q37 -29 165 -58q66 -15 106 -28q77 -25 167 -25q31 0 82 7q66 8 71 18q0 39 -238 63q-254 25 -384 137q-73 62 -73 153q0 85 51.5 161t130.5 109q92 38 216 38h6q160 0 376 -48q66 -15 364 -96q-42 -84 -105 -202q-19 -35 -24 -37 q-73 22 -292 75q-213 51 -307 52q-27 0 -41 -7q-40 -25 -40 -47q0 -70 279 -95q299 -28 400 -174q44 -63 45 -130q0 -48 -23 -87q-96 -170 -370 -171q-147 0 -349 47q-76 17 -183 46z" />
<glyph unicode="t" horiz-adv-x="1063" d="M-134 913l309 -17l-19 318l363 136l-6 -465l271 -6v-266l-280 -3q-15 -98 -15 -185q0 -147 51 -179q32 -20 73 -20h4q47 0 82 21q41 25 41 69q0 6 -3 24l271 148q70 -108 70 -230q0 -207 -253 -275q-96 -27 -183 -27q-235 0 -395 163q-58 59 -70 254q-5 78 -5 156v78 l-245 -6z" />
<glyph unicode="u" horiz-adv-x="1021" d="M0 518q0 146 34 344l408 -39q-15 -164 -15 -271q0 -150 36 -217q52 -99 95 -100q33 0 69 71q89 185 89 393q0 61 -2 95l347 -17l33 -174q5 -27 5 -73q0 -73 -44 -224q-21 -72 -92 -154q-72 -85 -147 -121q-107 -51 -251 -51q-207 0 -367 93q-142 83 -181 263 q-17 82 -17 182z" />
<glyph unicode="v" horiz-adv-x="1191" d="M-88 868l455 -17l198 -437l198 425l421 -34l-429 -901l-394 11z" />
<glyph unicode="w" horiz-adv-x="1701" d="M-88 868l455 -17l198 -437l117 264l-90 190l456 -17l197 -437l198 425l422 -34l-429 -901l-395 11l-135 300l-158 -295l-387 -5z" />
<glyph unicode="x" horiz-adv-x="1191" d="M-88 868l455 -17l228 -252l228 252l457 17l-470 -507l415 -457l-429 11l-201 217l-200 -217l-429 -11l415 457z" />
<glyph unicode="y" horiz-adv-x="1105" d="M-68 675l333 130l334 -515l204 476l368 -119l-619 -1248l-328 102l191 431z" />
<glyph unicode="z" horiz-adv-x="1191" d="M-47 873l1327 -5l-674 -703h639l-20 -261h-1259l612 657l-578 -5z" />
<glyph unicode="{" horiz-adv-x="680" d="M7 522q0 27 3 57q32 285 335 509q242 180 410 216l-47 -283q-145 -87 -266 -232q-81 -98 -105 -215q-8 -37 -7 -62q0 -222 316 -432l-40 -329q-323 193 -469 401q-130 186 -130 370z" />
<glyph unicode="|" horiz-adv-x="509" d="M0 -471l34 1821l456 91l-20 -1849z" />
<glyph unicode="}" horiz-adv-x="680" d="M-75 1304q160 -32 411 -217q304 -225 334 -508q3 -31 4 -57q0 -415 -599 -771l-41 329q317 207 317 432q0 28 -7 62q-39 201 -263 370q-76 57 -109 77z" />
<glyph unicode="~" d="M-13 1055l20 159q141 73 265 72q66 0 145 -51t155 -51q139 0 236 68q43 29 43 58l40 -244q-227 -62 -360 -62q-73 0 -95 23q-64 65 -230 64q-121 0 -219 -36z" />
<glyph unicode="&#xa1;" horiz-adv-x="340" d="M-47 -68l102 868l285 23l109 -766zM-2 1153q0 66 60 128q25 27 48 29q50 6 64 6q171 0 191 -133q-1 -156 -144 -168q-77 0 -143 36q-76 41 -76 102z" />
<glyph unicode="&#xa2;" horiz-adv-x="1021" d="M-70 622q0 278 187 426q103 81 271 106l7 145q300 0 300 -6l-8 -159q269 -40 392 -158q49 -47 67 -103l-372 -202q-37 77 -250 77q-58 0 -106 -66q-45 -62 -44 -121q3 -71 47.5 -114t116.5 -44q175 -4 265 149q8 -13 203 -145l101 -68q-86 -174 -261 -252 q-78 -35 -166 -53l-6 -119h-307l7 113q-227 20 -332 166q-89 122 -110 367q-2 20 -2 61z" />
<glyph unicode="&#xa3;" d="M-158 828l257 -23q-5 52 -5 75q0 280 372 373q120 30 240 30q212 0 310 -95q35 -34 56 -105l-293 -159q-52 112 -133 112q-54 0 -91 -71q-9 -18 -19 -104l-9 -72h220v-267l-240 -6q-1 -89 -12 -222l-6 -87q-2 -22 -2 -62q0 -24 3 -72l817 -16l-7 -300l-1212 50 q-5 34 -5 200q0 25 1 101l1 402h-196z" />
<glyph unicode="&#xa5;" horiz-adv-x="1191" d="M-130 1259l504 -28l340 -528l198 477l402 -18l-246 -530l177 4l-34 -199l-211 5l-73 -148l257 1l-54 -181l-294 -9l-156 -315l-401 -28l146 350l-282 -4l27 187l335 7l19 44l-27 79l-327 23l-6 193l169 -5l-286 436l-169 11z" />
<glyph unicode="&#xa6;" horiz-adv-x="509" d="M0 -471v993l470 28v-958zM22 686l12 664l456 91l-8 -738z" />
<glyph unicode="&#xa8;" horiz-adv-x="850" d="M-28 1134q0 73 31 121q36 56 106 55q76 -1 139 -35q78 -42 79 -110q0 -17 -7 -37q-53 -159 -190 -158q-68 5 -113 51t-45 113zM524 1151q0 73 31 122q36 56 106 54q76 -1 139 -35q78 -42 78 -109q0 -17 -6 -37q-54 -159 -192 -159q-90 8 -134 81q-22 36 -22 83z" />
<glyph unicode="&#xab;" horiz-adv-x="1616" d="M7 743l1000 329l-34 -238l-429 -108l395 -113l-41 -245zM772 743l1001 329l-34 -238l-429 -108l395 -113l-41 -245z" />
<glyph unicode="&#xad;" horiz-adv-x="595" d="M-7 550l20 187l633 57l-27 -227z" />
<glyph unicode="&#xb1;" horiz-adv-x="766" d="M-28 108l28 153l789 40l-13 -165zM-7 550l20 187l279 22l21 217h265l-26 -199l258 23l-28 -228l-278 -7l-34 -230h-259l34 223z" />
<glyph unicode="&#xb4;" d="M109 1043l443 204l190 -243l-538 -86z" />
<glyph unicode="&#xb5;" horiz-adv-x="1021" d="M-47 -408l62 754q6 70 6 263q0 164 13 253l408 -39q-15 -164 -15 -271q0 -150 36 -217q52 -99 95 -100q33 0 69 71q89 185 89 393q0 61 -2 95l347 -17l33 -174q5 -27 5 -73q0 -73 -44 -224q-22 -76 -93.5 -158t-145.5 -117q-117 -57 -316 -56q-41 0 -119 2l-27 -391z" />
<glyph unicode="&#xb7;" horiz-adv-x="340" d="M-7 683q0 69 37 114q39 49 106 54q106 0 172 -56q47 -40 47 -82q0 -66 -60 -129q-25 -26 -46 -28q-44 -6 -66 -6q-170 0 -190 133z" />
<glyph unicode="&#xb8;" horiz-adv-x="1021" d="M217 -187q257 17 257 114q0 43 -66 94l-102 81l85 3q123 5 208 14l102 -81q155 -93 155 -180q0 -114 -231 -187q-79 -25 -115 -34z" />
<glyph unicode="&#xbb;" horiz-adv-x="1616" d="M-72 1072l1001 -329l-892 -375l-40 245l394 113l-428 108zM695 1072l999 -329l-891 -375l-40 245l394 113l-428 108z" />
<glyph unicode="&#xbf;" d="M-111 184q0 130 279 363q272 226 436 267l87 -209q-148 -2 -318 -132q-160 -124 -160 -185q0 -14 11 -16q22 -5 47 -4q47 0 124 13q97 17 122 20q97 10 282 92q72 32 79 39q21 0 80 -150q17 -42 63 -163q-197 -54 -375 -95q-198 -47 -363 -47q-288 0 -385 171 q-9 14 -9 36zM257 1079q0 66 60 128q25 26 47 29q44 6 65 6q171 0 190 -133q0 -88 -60 -137q-32 -26 -83 -30q-155 0 -208 96q-11 19 -11 41z" />
<glyph unicode="&#xc0;" d="M-374 -227l905 1503l817 -1639l-348 -28l-388 754l-217 28l-340 -601zM190 1406l191 245l442 -205l-94 -124zM408 556l198 -23l-82 267z" />
<glyph unicode="&#xc1;" d="M-374 -227l905 1503l817 -1639l-348 -28l-388 754l-217 28l-340 -601zM198 1464l442 203l190 -244l-538 -85zM408 556l198 -23l-82 267z" />
<glyph unicode="&#xc2;" d="M-374 -227l905 1503l817 -1639l-348 -28l-388 754l-217 28l-340 -601zM47 1333l34 193l436 119l476 -136l21 -193l-497 135zM408 556l198 -23l-82 267z" />
<glyph unicode="&#xc3;" d="M-374 -227l905 1503l817 -1639l-348 -28l-388 754l-217 28l-340 -601zM28 1451l19 160q140 72 266 72q66 0 144.5 -51t154.5 -51q140 0 237 69q42 29 42 57l41 -243q-220 -63 -360 -63q-73 0 -96 22q-65 65 -229 65q-124 0 -219 -37zM408 556l198 -23l-82 267z" />
<glyph unicode="&#xc4;" d="M-374 -227l905 1503l817 -1639l-348 -28l-388 754l-217 28l-340 -601zM81 1509q0 74 31 121q36 56 105 55q78 -2 141 -35q78 -40 78 -110q0 -17 -7 -37q-54 -159 -191 -159q-89 8 -134 81q-23 36 -23 84zM408 556l198 -23l-82 267zM633 1526q0 178 136 176 q122 -2 188 -73q30 -32 30 -72q0 -17 -7 -37q-54 -163 -191 -159q-65 2 -110.5 50.5t-45.5 114.5z" />
<glyph unicode="&#xc5;" d="M-374 -227l905 1503l817 -1639l-348 -28l-388 754l-217 28l-340 -601zM333 1537q0 74 31 121q36 56 106 55q77 -2 139 -35q78 -40 78 -110q0 -17 -7 -37q-54 -159 -190 -159q-90 8 -135 81q-22 37 -22 84zM408 556l198 -23l-82 267z" />
<glyph unicode="&#xc6;" horiz-adv-x="1531" d="M-374 -227l905 1503l987 91l19 -301l-646 -90l28 -221l626 96l20 -250l-599 -102l55 -329l871 -34l-7 -301l-1164 80l-75 442l-251 34l-340 -601zM408 556l198 -23l-82 267z" />
<glyph unicode="&#xc7;" horiz-adv-x="1021" d="M-70 622q0 364 302 490q117 49 278 50q183 1 365 -64q228 -82 271 -225l-372 -202q-37 77 -250 77q-58 0 -106 -66q-45 -62 -44 -121q3 -71 47.5 -114t116.5 -44q175 -4 265 149q8 -13 203 -145l101 -68q-117 -236 -406 -301q155 -93 155 -180q0 -114 -231 -187 q-79 -25 -115 -34l-293 176q257 17 257 114q0 41 -66 94q-280 28 -398 241q-64 115 -78 299q-2 22 -2 61z" />
<glyph unicode="&#xc8;" d="M-96 834l21 328l1007 126l21 -301l-572 -80l14 -215l564 79l21 -249l-572 -90l28 -341l871 -34l-7 -300l-1212 50l-67 1044zM190 1406l191 245l442 -205l-94 -124z" />
<glyph unicode="&#xc9;" d="M-96 834l21 328l1007 126l21 -301l-572 -80l14 -215l564 79l21 -249l-572 -90l28 -341l871 -34l-7 -300l-1212 50l-67 1044zM198 1464l442 203l190 -244l-538 -85z" />
<glyph unicode="&#xca;" d="M-96 834l21 328l1007 126l21 -301l-572 -80l14 -215l564 79l21 -249l-572 -90l28 -341l871 -34l-7 -300l-1212 50l-67 1044zM47 1333l34 193l436 119l476 -136l21 -193l-497 135z" />
<glyph unicode="&#xcb;" d="M-96 834l21 328l1007 126l21 -301l-572 -80l14 -215l564 79l21 -249l-572 -90l28 -341l871 -34l-7 -300l-1212 50l-67 1044zM81 1509q0 74 31 121q36 56 105 55q78 -2 141 -35q78 -40 78 -110q0 -17 -7 -37q-54 -159 -191 -159q-89 8 -134 81q-23 36 -23 84zM633 1526 q0 178 136 176q122 -2 188 -73q30 -32 30 -72q0 -17 -7 -37q-54 -163 -191 -159q-65 2 -110.5 50.5t-45.5 114.5z" />
<glyph unicode="&#xcc;" d="M-96 834l21 328l1007 126l21 -301l-347 -57l-62 -612l422 -6l-7 -301h-1000l41 266l232 7l33 601zM190 1406l191 245l442 -205l-94 -124z" />
<glyph unicode="&#xcd;" d="M-96 834l21 328l1007 126l21 -301l-347 -57l-62 -612l422 -6l-7 -301h-1000l41 266l232 7l33 601zM198 1464l442 203l190 -244l-538 -85z" />
<glyph unicode="&#xce;" d="M-96 834l21 328l1007 126l21 -301l-347 -57l-62 -612l422 -6l-7 -301h-1000l41 266l232 7l33 601zM47 1333l34 193l436 119l476 -136l21 -193l-497 135z" />
<glyph unicode="&#xcf;" d="M-96 834l21 328l1007 126l21 -301l-347 -57l-62 -612l422 -6l-7 -301h-1000l41 266l232 7l33 601zM81 1509q0 74 31 121q36 56 105 55q78 -2 141 -35q78 -40 78 -110q0 -17 -7 -37q-54 -159 -191 -159q-89 8 -134 81q-23 36 -23 84zM633 1526q0 178 136 176 q122 -2 188 -73q30 -32 30 -72q0 -17 -7 -37q-54 -163 -191 -159q-65 2 -110.5 50.5t-45.5 114.5z" />
<glyph unicode="&#xd0;" horiz-adv-x="1105" d="M-34 1123q429 117 677 116q313 0 412 -167q115 -196 116 -410q0 -249 -150 -430q-72 -87 -175 -142q-87 -47 -227 -67l-347 -51l-57 442h-160l-21 295h143l-21 153q-5 0 -41 -36.5t-40 -36.5q-23 13 -72 209q-26 104 -37 125zM510 936l16 -233h148l6 -289h-136l8 -108 q212 76 244 182q26 47 26 210q0 222 -93 249q-70 20 -110 20q-57 0 -109 -31z" />
<glyph unicode="&#xd1;" d="M-149 1333l503 -29l218 -459l-48 420l517 -18l14 -1553l-307 -17l-312 737l6 -607l-395 -5l-47 1326l-143 29zM28 1451l19 160q140 72 266 72q66 0 144.5 -51t154.5 -51q140 0 237 69q42 29 42 57l41 -243q-220 -63 -360 -63q-73 0 -96 22q-65 65 -229 65 q-124 0 -219 -37z" />
<glyph unicode="&#xd2;" horiz-adv-x="1276" d="M-57 465q0 217 166 374q210 200 426 278q116 42 234 41q198 1 388 -120q197 -125 197 -335q0 -147 -93 -295q-44 -70 -97 -124q-315 -325 -669 -325q-181 0 -325 80q-108 61 -171 190q-56 115 -56 236zM190 1406l191 245l442 -205l-94 -124zM614 725q0 -80 56 -118 q69 -46 137 -46q93 0 149 72q49 63 49 145q0 43 -12 81q-13 -62 -54 -114q-51 -64 -117 -64q-89 0 -90 97q0 97 127 155q-158 0 -219 -109q-27 -48 -26 -99z" />
<glyph unicode="&#xd3;" horiz-adv-x="1276" d="M-57 465q0 217 166 374q210 200 426 278q116 42 234 41q198 1 388 -120q197 -125 197 -335q0 -147 -93 -295q-44 -70 -97 -124q-315 -325 -669 -325q-181 0 -325 80q-108 61 -171 190q-56 115 -56 236zM483 1475l442 204l191 -244l-538 -85zM614 725q0 -80 56 -118 q69 -46 137 -46q93 0 149 72q49 63 49 145q0 43 -12 81q-13 -62 -54 -114q-51 -64 -117 -64q-89 0 -90 97q0 97 127 155q-158 0 -219 -109q-27 -48 -26 -99z" />
<glyph unicode="&#xd4;" horiz-adv-x="1276" d="M-57 465q0 217 166 374q210 200 426 278q116 42 234 41q198 1 388 -120q197 -125 197 -335q0 -147 -93 -295q-44 -70 -97 -124q-315 -325 -669 -325q-181 0 -325 80q-108 61 -171 190q-56 115 -56 236zM198 1338l34 193l435 120l476 -137l21 -192l-497 135zM614 725 q0 -80 56 -118q69 -46 137 -46q93 0 149 72q49 63 49 145q0 43 -12 81q-13 -62 -54 -114q-51 -64 -117 -64q-89 0 -90 97q0 97 127 155q-158 0 -219 -109q-27 -48 -26 -99z" />
<glyph unicode="&#xd5;" horiz-adv-x="1276" d="M-57 465q0 217 166 374q210 200 426 278q116 42 234 41q198 1 388 -120q197 -125 197 -335q0 -147 -93 -295q-44 -70 -97 -124q-315 -325 -669 -325q-181 0 -325 80q-108 61 -171 190q-56 115 -56 236zM252 1457l20 159q140 72 266 73q65 0 143.5 -51.5t155.5 -51.5 q139 0 236 69q43 30 43 58l41 -244q-231 -62 -361 -63q-73 0 -95 23q-65 66 -230 66q-126 -1 -219 -38zM614 725q0 -80 56 -118q69 -46 137 -46q93 0 149 72q49 63 49 145q0 43 -12 81q-13 -62 -54 -114q-51 -64 -117 -64q-89 0 -90 97q0 97 127 155q-158 0 -219 -109 q-27 -48 -26 -99z" />
<glyph unicode="&#xd6;" horiz-adv-x="1276" d="M-57 465q0 217 166 374q210 200 426 278q116 42 234 41q198 1 388 -120q197 -125 197 -335q0 -147 -93 -295q-44 -70 -97 -124q-315 -325 -669 -325q-181 0 -325 80q-108 61 -171 190q-56 115 -56 236zM217 1509q0 74 31 121q36 56 106 55q76 -2 139 -36q78 -41 79 -109 q0 -17 -7 -37q-53 -159 -191 -159q-67 5 -112 51.5t-45 113.5zM614 725q0 -80 56 -118q69 -46 137 -46q93 0 149 72q49 63 49 145q0 43 -12 81q-13 -62 -54 -114q-51 -64 -117 -64q-89 0 -90 97q0 97 127 155q-158 0 -219 -109q-27 -48 -26 -99zM769 1526q0 178 137 176 q122 -2 187 -73q30 -32 30 -72q0 -21 -7 -37q-54 -163 -191 -159q-65 2 -110.5 50.5t-45.5 114.5z" />
<glyph unicode="&#xd7;" horiz-adv-x="850" d="M-21 862l232 176q40 -33 106 -83l117 -91q37 -29 42 -30l287 193l196 -125l-279 -188l273 -164l-320 -131l-191 120l-259 -114l-170 176l211 108z" />
<glyph unicode="&#xd8;" horiz-adv-x="1276" d="M-130 57l152 130q-77 127 -77 278q0 218 164 374q210 200 426 278q116 42 234 41q115 0 231 -42q44 41 136 120l252 -153l-129 -132q95 -106 95 -248q0 -223 -190 -419q-314 -325 -669 -325q-133 0 -250 47l-149 -108zM614 725q0 -80 56 -118q69 -46 137 -46q93 0 149 72 q49 63 49 145q0 43 -12 81q-13 -62 -54 -114q-51 -64 -117 -64q-89 0 -90 97q0 97 127 155q-158 0 -219 -109q-27 -48 -26 -99z" />
<glyph unicode="&#xd9;" horiz-adv-x="1105" d="M-149 1333l571 -40q-5 -65 -5 -148q0 -279 42 -558q18 -120 38 -155q42 -80 92 -80q61 0 106 96q36 77 35 252q0 104 -14 281l-13 166q-6 72 -8 118l441 -29q37 -202 38 -454q0 -291 -65 -453q-38 -97 -189 -214q-67 -52 -110 -73q-96 -46 -242 -46q-241 0 -398 112 q-99 70 -147 295q-42 197 -42 439q0 166 19 286l-143 29zM190 1406l191 245l442 -205l-94 -124z" />
<glyph unicode="&#xda;" horiz-adv-x="1105" d="M-149 1333l571 -40q-5 -65 -5 -148q0 -279 42 -558q18 -120 38 -155q42 -80 92 -80q61 0 106 96q36 77 35 252q0 104 -14 281l-13 166q-6 72 -8 118l441 -29q37 -202 38 -454q0 -291 -65 -453q-38 -97 -189 -214q-67 -52 -110 -73q-96 -46 -242 -46q-241 0 -398 112 q-99 70 -147 295q-42 197 -42 439q0 166 19 286l-143 29zM198 1464l442 203l190 -244l-538 -85z" />
<glyph unicode="&#xdb;" horiz-adv-x="1105" d="M-149 1333l571 -40q-5 -65 -5 -148q0 -279 42 -558q18 -120 38 -155q42 -80 92 -80q61 0 106 96q36 77 35 252q0 104 -14 281l-13 166q-6 72 -8 118l441 -29q37 -202 38 -454q0 -291 -65 -453q-38 -97 -189 -214q-67 -52 -110 -73q-96 -46 -242 -46q-241 0 -398 112 q-99 70 -147 295q-42 197 -42 439q0 166 19 286l-143 29zM47 1333l34 193l436 119l476 -136l21 -193l-497 135z" />
<glyph unicode="&#xdc;" horiz-adv-x="1105" d="M-149 1333l571 -40q-5 -65 -5 -148q0 -279 42 -558q18 -120 38 -155q42 -80 92 -80q61 0 106 96q36 77 35 252q0 104 -14 281l-13 166q-6 72 -8 118l441 -29q37 -202 38 -454q0 -291 -65 -453q-38 -97 -189 -214q-67 -52 -110 -73q-96 -46 -242 -46q-241 0 -398 112 q-99 70 -147 295q-42 197 -42 439q0 166 19 286l-143 29zM81 1509q0 74 31 121q36 56 105 55q78 -2 141 -35q78 -40 78 -110q0 -17 -7 -37q-54 -159 -191 -159q-89 8 -134 81q-23 36 -23 84zM633 1526q0 178 136 176q122 -2 188 -73q30 -32 30 -72q0 -17 -7 -37 q-54 -163 -191 -159q-65 2 -110.5 50.5t-45.5 114.5z" />
<glyph unicode="&#xdd;" horiz-adv-x="1191" d="M-130 1259l504 -28l340 -528l198 477l402 -18l-634 -1372l-401 -28l245 584l-477 726l-169 11zM198 1464l442 203l190 -244l-538 -85z" />
<glyph unicode="&#xdf;" horiz-adv-x="1021" d="M7 952q0 164 180 229q64 22 92 27q143 42 268 42q272 0 372 -173q10 -17 10 -39q0 -93 -166 -261q27 -2 79 -29q86 -43 158 -141q85 -114 86 -212q0 -209 -353 -330l-134 280q115 57 115 126q0 29 -49 75q-47 44 -79 49q-62 -51 -116 -68l183 -623l-361 57l-271 907 q-14 47 -14 84zM374 942l48 -205q184 150 184 200q0 12 -14 15q-78 19 -114 20q-54 0 -104 -30z" />
<glyph unicode="&#xe0;" horiz-adv-x="850" d="M-32 360q0 167 115 269q201 177 422 178q31 0 47 -2l6 -5l348 130l6 -387q7 -36 7 -82q0 -40 -3 -59l9 -425l-373 -16v42q-91 -31 -185 -31q-145 0 -242 66q-157 107 -157 322zM109 1004l190 243l443 -204l-96 -125zM318 488q0 -63 71 -103q63 -35 128 -35q13 0 35 3v148 q-65 0 -65 73q0 68 65 104q-94 -10 -167 -70q-67 -57 -67 -120z" />
<glyph unicode="&#xe1;" horiz-adv-x="850" d="M-32 360q0 167 115 269q201 177 422 178q31 0 47 -2l6 -5l348 130l6 -387q7 -36 7 -82q0 -40 -3 -59l9 -425l-373 -16v42q-91 -31 -185 -31q-145 0 -242 66q-157 107 -157 322zM109 1043l443 204l190 -243l-538 -86zM318 488q0 -63 71 -103q63 -35 128 -35q13 0 35 3v148 q-65 0 -65 73q0 68 65 104q-94 -10 -167 -70q-67 -57 -67 -120z" />
<glyph unicode="&#xe2;" horiz-adv-x="850" d="M-34 1004l34 193l436 119l476 -136l20 -193l-496 136zM-32 360q0 167 115 269q201 177 422 178q31 0 47 -2l6 -5l348 130l6 -387q7 -36 7 -82q0 -40 -3 -59l9 -425l-373 -16v42q-91 -31 -185 -31q-145 0 -242 66q-157 107 -157 322zM318 488q0 -63 71 -103 q63 -35 128 -35q13 0 35 3v148q-65 0 -65 73q0 68 65 104q-94 -10 -167 -70q-67 -57 -67 -120z" />
<glyph unicode="&#xe3;" horiz-adv-x="850" d="M-32 360q0 167 115 269q201 177 422 178q31 0 47 -2l6 -5l348 130l6 -387q7 -36 7 -82q0 -40 -3 -59l9 -425l-373 -16v42q-91 -31 -185 -31q-145 0 -242 66q-157 107 -157 322zM-13 1055l20 159q141 73 265 72q66 0 145 -51t155 -51q139 0 236 68q43 29 43 58l40 -244 q-227 -62 -360 -62q-73 0 -95 23q-64 65 -230 64q-121 0 -219 -36zM318 488q0 -63 71 -103q63 -35 128 -35q13 0 35 3v148q-65 0 -65 73q0 68 65 104q-94 -10 -167 -70q-67 -57 -67 -120z" />
<glyph unicode="&#xe4;" horiz-adv-x="850" d="M-32 360q0 167 115 269q201 177 422 178q31 0 47 -2l6 -5l348 130l6 -387q7 -36 7 -82q0 -40 -3 -59l9 -425l-373 -16v42q-91 -31 -185 -31q-145 0 -242 66q-157 107 -157 322zM-28 1134q0 73 31 121q36 56 106 55q76 -1 139 -35q78 -42 79 -110q0 -17 -7 -37 q-53 -159 -190 -158q-68 5 -113 51t-45 113zM318 488q0 -63 71 -103q63 -35 128 -35q13 0 35 3v148q-65 0 -65 73q0 68 65 104q-94 -10 -167 -70q-67 -57 -67 -120zM524 1151q0 73 31 122q36 56 106 54q76 -1 139 -35q78 -42 78 -109q0 -17 -6 -37q-54 -159 -192 -159 q-90 8 -134 81q-22 36 -22 83z" />
<glyph unicode="&#xe5;" horiz-adv-x="850" d="M-32 360q0 167 115 269q201 177 422 178q31 0 47 -2l6 -5l348 130l6 -387q7 -36 7 -82q0 -40 -3 -59l9 -425l-373 -16v42q-91 -31 -185 -31q-145 0 -242 66q-157 107 -157 322zM279 1151q0 73 31 122q36 56 105 54q76 -1 140 -35q78 -42 78 -109q0 -17 -6 -37 q-53 -159 -191 -159q-91 8 -135 81q-22 36 -22 83zM318 488q0 -63 71 -103q63 -35 128 -35q13 0 35 3v148q-65 0 -65 73q0 68 65 104q-94 -10 -167 -70q-67 -57 -67 -120z" />
<glyph unicode="&#xe6;" horiz-adv-x="1531" d="M-32 360q0 167 115 269q201 177 422 178q31 0 47 -2l6 -5l348 130l6 -187q133 33 228 34q106 0 225 -50q61 -25 132 -64l-456 -453q121 0 215 81q46 39 81 92l200 -202q-52 -121 -346 -181q-132 -27 -254 -27q-222 0 -304 78l-116 -51q-109 -17 -184 -17q-231 0 -324 193 q-42 87 -41 184zM318 488q0 -63 71 -103q63 -35 128 -35q13 0 35 3v148q-65 0 -65 73q0 68 65 104q-94 -10 -167 -70q-67 -57 -67 -120zM827 388q0 -36 25 -107l255 263q-40 17 -83 17q-99 0 -146 -51q-51 -57 -51 -122z" />
<glyph unicode="&#xe7;" horiz-adv-x="1021" d="M-70 622q0 364 302 490q117 49 278 50q183 1 365 -64q228 -82 271 -225l-372 -202q-37 77 -250 77q-58 0 -106 -66q-45 -62 -44 -121q3 -71 47.5 -114t116.5 -44q175 -4 265 149q8 -13 203 -145l101 -68q-117 -236 -406 -301q155 -93 155 -180q0 -114 -231 -187 q-79 -25 -115 -34l-293 176q257 17 257 114q0 41 -66 94q-280 28 -398 241q-64 115 -78 299q-2 22 -2 61z" />
<glyph unicode="&#xe8;" horiz-adv-x="850" d="M-19 284q0 85 36 183q42 112 105 162q181 143 436 143q221 0 367 -109l-455 -453q121 0 215 81q45 38 81 92l200 -202q-50 -121 -329 -183q-123 -28 -248 -28q-235 0 -327 98q-81 84 -81 216zM109 1004l190 243l443 -204l-96 -125zM255 388q0 -36 26 -107l255 263 q-41 17 -83 17q-100 0 -147 -51q-51 -57 -51 -122z" />
<glyph unicode="&#xe9;" horiz-adv-x="850" d="M-19 284q0 85 36 183q42 112 105 162q181 143 436 143q221 0 367 -109l-455 -453q121 0 215 81q45 38 81 92l200 -202q-50 -121 -329 -183q-123 -28 -248 -28q-235 0 -327 98q-81 84 -81 216zM109 1043l443 204l190 -243l-538 -86zM255 388q0 -36 26 -107l255 263 q-41 17 -83 17q-100 0 -147 -51q-51 -57 -51 -122z" />
<glyph unicode="&#xea;" horiz-adv-x="850" d="M-34 1004l34 193l436 119l476 -136l20 -193l-496 136zM-19 284q0 85 36 183q42 112 105 162q181 143 436 143q221 0 367 -109l-455 -453q121 0 215 81q45 38 81 92l200 -202q-50 -121 -329 -183q-123 -28 -248 -28q-235 0 -327 98q-81 84 -81 216zM255 388q0 -36 26 -107 l255 263q-41 17 -83 17q-100 0 -147 -51q-51 -57 -51 -122z" />
<glyph unicode="&#xeb;" horiz-adv-x="850" d="M-28 1134q0 73 31 121q36 56 106 55q76 -1 139 -35q78 -42 79 -110q0 -17 -7 -37q-53 -159 -190 -158q-68 5 -113 51t-45 113zM-19 284q0 85 36 183q42 112 105 162q181 143 436 143q221 0 367 -109l-455 -453q121 0 215 81q45 38 81 92l200 -202q-50 -121 -329 -183 q-123 -28 -248 -28q-235 0 -327 98q-81 84 -81 216zM255 388q0 -36 26 -107l255 263q-41 17 -83 17q-100 0 -147 -51q-51 -57 -51 -122zM524 1151q0 73 31 122q36 56 106 54q76 -1 139 -35q78 -42 78 -109q0 -17 -6 -37q-54 -159 -192 -159q-90 8 -134 81q-22 36 -22 83z " />
<glyph unicode="&#xec;" horiz-adv-x="425" d="M-68 572l40 171l423 147l54 -1020l-374 -18l-20 743zM109 1004l190 243l443 -204l-96 -125z" />
<glyph unicode="&#xed;" horiz-adv-x="425" d="M-68 572l40 171l423 147l54 -1020l-374 -18l-20 743zM109 1043l443 204l190 -243l-538 -86z" />
<glyph unicode="&#xee;" horiz-adv-x="425" d="M-286 987l34 193l435 119l478 -137l19 -192l-497 135zM-68 572l40 171l423 147l54 -1020l-374 -18l-20 743z" />
<glyph unicode="&#xef;" horiz-adv-x="425" d="M-279 1140q0 178 136 176q122 -2 188 -73q30 -32 30 -72q0 -17 -7 -37q-53 -159 -190 -158q-67 5 -112 51t-45 113zM-68 572l40 171l423 147l54 -1020l-374 -18l-20 743zM272 1157q0 74 31 121q36 56 105 55q76 -2 140 -35q78 -42 79 -110q0 -21 -8 -37 q-52 -159 -190 -158q-91 7 -135 81q-22 36 -22 83z" />
<glyph unicode="&#xf0;" horiz-adv-x="850" d="M-32 360q0 167 115 269q138 123 311 171q84 24 159 24q25 0 39 -1l10 254q-35 134 -119 134q-94 0 -163 -134l-112 301q145 68 296 68q115 0 221 -40q75 -28 109 -61q40 -37 61 -109l17 -693q7 -36 7 -82q0 -40 -3 -59l9 -425l-347 -16v42q-91 -31 -191 -31 q-164 0 -262 66q-157 107 -157 322zM318 488q0 -63 71 -103q63 -35 128 -35q13 0 35 3v148q-65 0 -65 73q0 68 65 104q-94 -10 -167 -70q-67 -57 -67 -120z" />
<glyph unicode="&#xf1;" horiz-adv-x="1021" d="M-13 811l326 34l48 -45q189 52 285 52q81 0 143 -29q81 -39 161 -121q84 -85 105 -158q44 -149 44 -257q0 -90 -38 -287l-347 -17q2 35 2 99q0 273 -89 462q-34 72 -69 72q-44 0 -95 -100q-26 -49 -34 -136q-2 -31 -2 -81q0 -106 15 -271l-408 -39q-24 144 -32 233 q-4 48 -4 111q0 26 4 74zM-13 1055l20 159q141 73 265 72q66 0 145 -51t155 -51q139 0 236 68q43 29 43 58l40 -244q-227 -62 -360 -62q-73 0 -95 23q-64 65 -230 64q-121 0 -219 -36z" />
<glyph unicode="&#xf2;" horiz-adv-x="850" d="M-32 360q0 167 115 269q200 177 421 178q63 0 124 -14q155 -35 221 -115q71 -87 71 -215q0 -98 -35 -182q-16 -37 -39 -66q-198 -243 -479 -243q-145 0 -242 66q-157 107 -157 322zM109 1004l190 243l443 -204l-96 -125zM318 488q0 -58 66 -100q60 -38 132 -38 q120 0 175 117q24 51 23 103q0 34 -10 63q-13 -46 -54 -86q-47 -46 -98 -46q-65 0 -65 67q0 78 105 113q-91 0 -175 -50q-99 -58 -99 -143z" />
<glyph unicode="&#xf3;" horiz-adv-x="850" d="M-32 360q0 167 115 269q200 177 421 178q63 0 124 -14q155 -35 221 -115q71 -87 71 -215q0 -98 -35 -182q-16 -37 -39 -66q-198 -243 -479 -243q-145 0 -242 66q-157 107 -157 322zM109 1043l443 204l190 -243l-538 -86zM318 488q0 -58 66 -100q60 -38 132 -38 q120 0 175 117q24 51 23 103q0 34 -10 63q-13 -46 -54 -86q-47 -46 -98 -46q-65 0 -65 67q0 78 105 113q-91 0 -175 -50q-99 -58 -99 -143z" />
<glyph unicode="&#xf4;" horiz-adv-x="850" d="M-34 1004l34 193l436 119l476 -136l20 -193l-496 136zM-32 360q0 167 115 269q200 177 421 178q63 0 124 -14q155 -35 221 -115q71 -87 71 -215q0 -98 -35 -182q-16 -37 -39 -66q-198 -243 -479 -243q-145 0 -242 66q-157 107 -157 322zM318 488q0 -58 66 -100 q60 -38 132 -38q120 0 175 117q24 51 23 103q0 34 -10 63q-13 -46 -54 -86q-47 -46 -98 -46q-65 0 -65 67q0 78 105 113q-91 0 -175 -50q-99 -58 -99 -143z" />
<glyph unicode="&#xf5;" horiz-adv-x="850" d="M-32 360q0 167 115 269q200 177 421 178q63 0 124 -14q155 -35 221 -115q71 -87 71 -215q0 -98 -35 -182q-16 -37 -39 -66q-198 -243 -479 -243q-145 0 -242 66q-157 107 -157 322zM-13 1055l20 159q141 73 265 72q66 0 145 -51t155 -51q139 0 236 68q43 29 43 58 l40 -244q-227 -62 -360 -62q-73 0 -95 23q-64 65 -230 64q-121 0 -219 -36zM318 488q0 -58 66 -100q60 -38 132 -38q120 0 175 117q24 51 23 103q0 34 -10 63q-13 -46 -54 -86q-47 -46 -98 -46q-65 0 -65 67q0 78 105 113q-91 0 -175 -50q-99 -58 -99 -143z" />
<glyph unicode="&#xf6;" horiz-adv-x="850" d="M-32 360q0 167 115 269q200 177 421 178q63 0 124 -14q155 -35 221 -115q71 -87 71 -215q0 -98 -35 -182q-16 -37 -39 -66q-198 -243 -479 -243q-145 0 -242 66q-157 107 -157 322zM-28 1134q0 73 31 121q36 56 106 55q76 -1 139 -35q78 -42 79 -110q0 -17 -7 -37 q-53 -159 -190 -158q-68 5 -113 51t-45 113zM318 488q0 -58 66 -100q60 -38 132 -38q120 0 175 117q24 51 23 103q0 34 -10 63q-13 -46 -54 -86q-47 -46 -98 -46q-65 0 -65 67q0 78 105 113q-91 0 -175 -50q-99 -58 -99 -143zM524 1151q0 73 31 122q36 56 106 54 q76 -1 139 -35q78 -42 78 -109q0 -17 -6 -37q-54 -159 -192 -159q-90 8 -134 81q-22 36 -22 83z" />
<glyph unicode="&#xf7;" horiz-adv-x="766" d="M-7 550l20 187l797 63l-28 -228zM198 955q0 162 142 168q101 5 172 -56q48 -40 48 -82q0 -67 -61 -129q-25 -25 -46 -28q-44 -5 -65 -5q-171 0 -190 132zM217 332q0 69 37 114q40 48 107 53q106 0 171 -55q47 -39 48 -83q0 -39 -31 -91q-27 -45 -58 -59q-26 -12 -83 -13 q-171 0 -191 134z" />
<glyph unicode="&#xf8;" horiz-adv-x="850" d="M-130 39l138 137q-42 86 -42 184q0 166 117 269q200 177 421 178q107 0 208 -40l84 95l63 -46q121 -89 121 -96l-108 -102q44 -82 44 -177q0 -138 -70 -226q-196 -243 -479 -243q-93 0 -177 32l-128 -95zM318 488q0 -58 66 -100q60 -38 132 -38q120 0 175 117 q24 51 23 103q0 34 -10 63q-13 -46 -54 -86q-47 -46 -98 -46q-65 0 -65 67q0 78 105 113q-91 0 -175 -50q-99 -58 -99 -143z" />
<glyph unicode="&#xf9;" horiz-adv-x="1021" d="M0 518q0 146 34 344l408 -39q-15 -164 -15 -271q0 -150 36 -217q52 -99 95 -100q33 0 69 71q89 185 89 393q0 61 -2 95l347 -17l33 -174q5 -27 5 -73q0 -73 -44 -224q-21 -72 -92 -154q-72 -85 -147 -121q-107 -51 -251 -51q-207 0 -367 93q-142 83 -181 263 q-17 82 -17 182zM238 1004l191 243l443 -204l-96 -125z" />
<glyph unicode="&#xfa;" horiz-adv-x="1021" d="M0 518q0 146 34 344l408 -39q-15 -164 -15 -271q0 -150 36 -217q52 -99 95 -100q33 0 69 71q89 185 89 393q0 61 -2 95l347 -17l33 -174q5 -27 5 -73q0 -73 -44 -224q-21 -72 -92 -154q-72 -85 -147 -121q-107 -51 -251 -51q-207 0 -367 93q-142 83 -181 263 q-17 82 -17 182zM265 1055l443 204l190 -244l-537 -85z" />
<glyph unicode="&#xfb;" horiz-adv-x="1021" d="M0 518q0 146 34 344l408 -39q-15 -164 -15 -271q0 -150 36 -217q52 -99 95 -100q33 0 69 71q89 185 89 393q0 61 -2 95l347 -17l33 -174q5 -27 5 -73q0 -73 -44 -224q-21 -72 -92 -154q-72 -85 -147 -121q-107 -51 -251 -51q-207 0 -367 93q-142 83 -181 263 q-17 82 -17 182zM41 998l34 193l435 119l477 -136l20 -193l-497 136z" />
<glyph unicode="&#xfc;" horiz-adv-x="1021" d="M0 518q0 146 34 344l408 -39q-15 -164 -15 -271q0 -150 36 -217q52 -99 95 -100q33 0 69 71q89 185 89 393q0 61 -2 95l347 -17l33 -174q5 -27 5 -73q0 -73 -44 -224q-21 -72 -92 -154q-72 -85 -147 -121q-107 -51 -251 -51q-207 0 -367 93q-142 83 -181 263 q-17 82 -17 182zM62 1134q0 73 30 121q36 56 106 55q76 -1 139 -35q78 -42 78 -110q0 -17 -7 -37q-53 -159 -191 -158q-91 7 -134 81q-21 36 -21 83zM612 1151q0 73 31 122q36 56 105 54q76 -1 140 -35q78 -42 78 -109q0 -17 -7 -37q-53 -159 -190 -159q-89 8 -134 80 q-23 37 -23 84z" />
<glyph unicode="&#xfd;" horiz-adv-x="1105" d="M-68 675l333 130l334 -515l204 476l368 -119l-619 -1248l-328 102l191 431zM211 1055l442 204l191 -244l-538 -85z" />
<glyph unicode="&#xff;" horiz-adv-x="1105" d="M-68 675l333 130l334 -515l204 476l368 -119l-619 -1248l-328 102l191 431zM81 1134q0 73 31 121q36 56 105 55q78 -1 141 -34q78 -40 78 -111q0 -17 -7 -37q-53 -159 -191 -158q-89 7 -134 80q-23 36 -23 84zM633 1151q0 73 30 122q36 56 106 54q76 -1 140 -35 q78 -42 78 -109q0 -17 -7 -37q-53 -159 -191 -159q-90 8 -134 81q-22 36 -22 83z" />
<glyph unicode="&#x152;" horiz-adv-x="1871" d="M-42 483q0 250 172 413q279 262 615 262q53 0 80 -2l1094 148l21 -300l-572 -80l14 -215l564 80l20 -250l-571 -91l27 -340l872 -35l-7 -300l-1212 51l-44 338q-258 -202 -538 -203q-177 0 -323 80q-130 72 -186 259q-27 89 -26 185zM614 725q0 -80 56 -118 q69 -46 137 -46q93 0 149 72q49 63 49 145q0 43 -12 81q-13 -62 -54 -114q-51 -64 -117 -64q-89 0 -90 97q0 97 127 155q-158 0 -219 -109q-27 -48 -26 -99z" />
<glyph unicode="&#x153;" horiz-adv-x="1531" d="M-32 360q0 167 115 269q202 178 422 179q123 0 248 -58q51 -24 88 -74q160 89 357 90q223 0 367 -108l-456 -454q121 0 215 81q46 39 81 92l201 -201q-51 -119 -328 -178q-123 -26 -245 -26q-247 0 -342 100q-149 -100 -324 -100q-145 0 -242 66q-157 107 -157 322z M318 488q0 -58 66 -100q60 -38 132 -38q120 0 175 117q24 51 23 103q0 34 -10 63q-13 -46 -54 -86q-47 -46 -98 -46q-65 0 -65 67q0 78 105 113q-91 0 -175 -50q-99 -58 -99 -143zM922 400q0 -34 16 -81q7 -24 10 -27l255 264q-41 16 -83 16q-102 0 -147 -50 q-51 -56 -51 -122z" />
<glyph unicode="&#x178;" horiz-adv-x="1191" d="M-130 1259l504 -28l340 -528l198 477l402 -18l-634 -1372l-401 -28l245 584l-477 726l-169 11zM81 1509q0 74 31 121q36 56 105 55q78 -2 141 -35q78 -40 78 -110q0 -17 -7 -37q-54 -159 -191 -159q-89 8 -134 81q-23 36 -23 84zM633 1526q0 178 136 176q122 -2 188 -73 q30 -32 30 -72q0 -17 -7 -37q-54 -163 -191 -159q-65 2 -110.5 50.5t-45.5 114.5z" />
<glyph unicode="&#x2c6;" d="M-34 1004l34 193l436 119l476 -136l20 -193l-496 136z" />
<glyph unicode="&#x2dc;" d="M-13 1055l20 159q141 73 265 72q66 0 145 -51t155 -51q139 0 236 68q43 29 43 58l40 -244q-227 -62 -360 -62q-73 0 -95 23q-64 65 -230 64q-121 0 -219 -36z" />
<glyph unicode="&#x2000;" horiz-adv-x="856" />
<glyph unicode="&#x2001;" horiz-adv-x="1713" />
<glyph unicode="&#x2002;" horiz-adv-x="856" />
<glyph unicode="&#x2003;" horiz-adv-x="1713" />
<glyph unicode="&#x2004;" horiz-adv-x="571" />
<glyph unicode="&#x2005;" horiz-adv-x="428" />
<glyph unicode="&#x2006;" horiz-adv-x="285" />
<glyph unicode="&#x2007;" horiz-adv-x="285" />
<glyph unicode="&#x2008;" horiz-adv-x="214" />
<glyph unicode="&#x2009;" horiz-adv-x="342" />
<glyph unicode="&#x200a;" horiz-adv-x="95" />
<glyph unicode="&#x2010;" horiz-adv-x="766" d="M-7 550l20 187l797 63l-28 -228z" />
<glyph unicode="&#x2011;" horiz-adv-x="766" d="M-7 550l20 187l797 63l-28 -228z" />
<glyph unicode="&#x2012;" horiz-adv-x="766" d="M-7 550l20 187l797 63l-28 -228z" />
<glyph unicode="&#x2013;" horiz-adv-x="1105" d="M-7 550l20 187l1103 68l-27 -226z" />
<glyph unicode="&#x2014;" horiz-adv-x="766" d="M-7 550l20 187l797 63l-28 -228z" />
<glyph unicode="&#x2018;" horiz-adv-x="340" d="M17 1238l345 -41l-34 -422l-177 21z" />
<glyph unicode="&#x2019;" horiz-adv-x="340" d="M17 1238l345 -41l-34 -422l-177 21z" />
<glyph unicode="&#x201a;" horiz-adv-x="340" d="M-17 444l345 -41l-34 -421l-177 19z" />
<glyph unicode="&#x201c;" horiz-adv-x="850" d="M-68 1238l345 -41l-34 -422l-177 21zM442 1238l345 -41l-34 -422l-177 21z" />
<glyph unicode="&#x201d;" horiz-adv-x="850" d="M-68 1238l345 -41l-34 -422l-177 21zM442 1238l345 -41l-34 -422l-177 21z" />
<glyph unicode="&#x201e;" horiz-adv-x="850" d="M-75 433l346 -42l-34 -421l-177 20zM436 433l345 -42l-34 -421l-177 20z" />
<glyph unicode="&#x2022;" horiz-adv-x="340" d="M-7 683q0 69 37 114q39 49 106 54q106 0 172 -56q47 -40 47 -82q0 -66 -60 -129q-25 -26 -46 -28q-44 -6 -66 -6q-170 0 -190 133z" />
<glyph unicode="&#x2026;" horiz-adv-x="1105" d="M-7 122q0 69 37 114q39 49 106 54q106 0 172 -57q47 -40 47 -81q0 -66 -60 -129q-25 -26 -46 -29q-44 -5 -66 -5q-170 0 -190 133zM401 127q0 69 37 115q39 48 106 53q106 0 172 -55q48 -40 48 -83q0 -66 -60 -129q-25 -25 -47 -28q-44 -6 -65 -6q-170 0 -191 133z M803 134q0 68 37 113q39 49 106 54q106 0 172 -56q47 -40 47 -82q0 -37 -31 -91q-27 -46 -58 -60q-25 -12 -83 -12q-111 0 -160 62q-24 31 -30 72z" />
<glyph unicode="&#x202f;" horiz-adv-x="342" />
<glyph unicode="&#x2039;" horiz-adv-x="850" d="M7 743l1000 329l-34 -238l-429 -108l395 -113l-41 -245z" />
<glyph unicode="&#x203a;" horiz-adv-x="850" d="M-72 1072l1001 -329l-892 -375l-40 245l394 113l-428 108z" />
<glyph unicode="&#x205f;" horiz-adv-x="428" />
<glyph unicode="&#x25fc;" horiz-adv-x="868" d="M0 0v868h868v-868h-868z" />
</font>
</defs>
</svg>
