<?xml version="1.0" standalone="no"?>
<!DOCTYPE svg PUBLIC "-//W3C//DTD SVG 20010904//EN"
 "http://www.w3.org/TR/2001/REC-SVG-20010904/DTD/svg10.dtd">
<svg version="1.0" xmlns="http://www.w3.org/2000/svg"
 width="16.000000pt" height="16.000000pt" viewBox="0 0 16.000000 16.000000"
 preserveAspectRatio="xMidYMid meet">
<metadata>
Created by potrace 1.11, written by Peter Selinger 2001-2013
</metadata>
<g transform="translate(0.000000,16.000000) scale(0.002247,-0.002247)"
fill="#000000" stroke="none">
<path d="M2700 7104 c-163 -29 -374 -111 -482 -186 -14 -10 -29 -18 -33 -18
-21 0 -256 -191 -351 -285 -337 -336 -489 -640 -483 -967 2 -150 36 -269 113
-405 49 -87 176 -220 295 -311 160 -121 406 -238 564 -267 37 -7 34 -9 -90
-50 -70 -24 -168 -62 -217 -84 -98 -46 -130 -51 -321 -51 -215 -1 -376 24
-561 85 -333 111 -617 348 -726 606 -108 258 -109 574 -3 950 41 143 38 134
63 202 4 10 74 48 177 96 256 117 310 142 313 146 3 3 -112 255 -202 446 l-27
57 -177 -83 c-97 -45 -208 -97 -247 -114 -38 -18 -71 -34 -73 -35 -1 -2 47
-111 108 -242 60 -132 110 -244 110 -250 0 -7 -18 -47 -39 -90 -73 -145 -109
-240 -140 -361 -42 -163 -50 -231 -46 -393 4 -199 19 -272 85 -417 56 -120
103 -187 205 -288 194 -193 478 -339 720 -371 28 -3 53 -8 56 -10 7 -4 191
-17 234 -17 56 1 218 13 254 19 30 5 19 -5 -69 -62 -305 -197 -433 -295 -622
-479 -213 -208 -386 -409 -515 -600 -82 -122 -235 -405 -218 -405 2 0 20 27
40 60 172 283 586 683 1038 1004 511 362 931 550 1342 601 28 3 77 10 110 15
33 5 87 12 120 16 33 3 63 8 66 10 4 2 42 6 85 10 44 3 89 7 102 9 155 25 999
25 1142 1 14 -3 57 -7 95 -11 170 -16 352 -58 436 -100 27 -14 76 -52 107 -83
217 -217 247 -626 71 -976 -51 -102 -108 -180 -200 -276 -212 -222 -378 -500
-829 -1385 -265 -519 -312 -600 -457 -781 -172 -213 -289 -295 -640 -450 -275
-122 -365 -156 -648 -244 -113 -35 -479 -120 -585 -135 -66 -10 -143 -25 -147
-29 -2 -2 -6 -31 -9 -64 l-6 -62 63 5 c64 5 143 13 189 20 14 2 45 7 70 10
421 58 879 199 1242 381 300 150 451 292 689 646 180 268 259 409 548 983 99
198 199 394 222 435 22 41 70 129 106 195 96 175 165 275 247 360 118 121 222
155 461 149 289 -7 567 -84 758 -211 63 -42 299 -222 368 -281 119 -102 333
-272 341 -272 17 0 1 173 -27 307 -119 564 -450 1110 -870 1435 -188 146 -607
366 -905 475 -383 140 -740 197 -1230 197 -174 0 -508 -12 -520 -19 -3 -1 -48
-6 -100 -9 -52 -4 -102 -9 -110 -11 -8 -2 -42 -7 -75 -10 -93 -10 -341 -52
-472 -80 -65 -14 -129 -25 -142 -25 -60 0 -320 107 -429 176 -29 19 -56 34
-61 34 -5 0 -11 3 -13 8 -2 4 -37 33 -78 64 -269 203 -409 456 -394 713 10
172 77 360 187 525 90 135 244 306 390 433 140 121 294 218 456 288 221 93
447 110 736 54 57 -11 240 -67 315 -97 234 -93 507 -269 694 -448 l58 -57 -64
-259 c-43 -173 -61 -261 -54 -265 11 -7 229 -64 276 -73 14 -2 74 -16 133 -31
59 -15 110 -25 113 -22 12 12 134 521 127 527 -5 4 -123 35 -263 70 l-255 62
-40 47 c-288 334 -680 569 -1100 662 -125 27 -362 34 -475 13z m-1914 -314
c46 -100 84 -185 84 -189 0 -4 -24 -18 -52 -31 -29 -13 -91 -41 -138 -63 -47
-21 -105 -48 -130 -59 -25 -11 -48 -22 -51 -24 -3 -2 -34 59 -69 134 -35 75
-74 159 -87 186 -12 28 -23 52 -23 55 0 4 15 12 33 20 17 8 90 42 162 76 163
76 179 83 183 80 2 -2 42 -85 88 -185z m3727 -526 c78 -19 152 -37 164 -40 12
-2 33 -8 47 -14 13 -5 27 -6 30 -3 12 12 5 -21 -35 -180 -22 -89 -45 -178 -50
-198 l-9 -35 -192 48 c-106 26 -198 50 -204 52 -14 5 83 406 97 406 5 0 73
-16 152 -36z"/>
<path d="M3322 4105 c-120 -23 -121 -23 -71 -52 89 -51 277 -142 367 -178 160
-63 293 -81 370 -49 156 62 -14 219 -303 279 -62 13 -291 13 -363 0z"/>
</g>
</svg>
